<svg xmlns="http://www.w3.org/2000/svg" viewBox="0 0 64 64" width="512" height="512"><g id="Tow_Truck" data-name="Tow Truck"><rect x="42" y="38" width="4" height="2"></rect><rect x="11" y="50" width="2" height="2"></rect><rect x="48" y="50" width="2" height="2"></rect><path d="M61.31,33.574l-4.863-9A3,3,0,0,0,53.807,23H40.121L8.482,8.254a.993.993,0,0,0-.764-.033,1,1,0,0,0-.565.517l-1.69,3.63A1,1,0,0,0,5.948,13.7L6,13.721V19a1,1,0,0,0,1,1,1,1,0,1,1-1,1H4a3,3,0,1,0,4-2.829V14.653L34,26.772V41H3a1,1,0,0,0-1,1v8a2,2,0,0,0,2,2H6.09a5.993,5.993,0,0,0,11.82,0H43.09a5.993,5.993,0,0,0,11.82,0H59a3,3,0,0,0,3-3V36.108A4.959,4.959,0,0,0,61.31,33.574Zm-6.623-8.049L59.267,34H44V25h9.807A1,1,0,0,1,54.687,25.525ZM8.544,10.489,38,24.218v2.213L7.7,12.306ZM36,27.705l2,.932V41H36ZM12,55a4,4,0,1,1,4-4A4,4,0,0,1,12,55Zm0-10a6.006,6.006,0,0,0-5.91,5H4V43H38v7H17.91A6.006,6.006,0,0,0,12,45ZM49,55a4,4,0,1,1,4-4A4,4,0,0,1,49,55Zm10-5H54.91a5.993,5.993,0,0,0-11.82,0H40V25h2V35a1,1,0,0,0,1,1H59.985c0,.036.015.071.015.108V38H56a2,2,0,0,0-2,2v2a2,2,0,0,0,2,2h4v2H57v2h3v1A1,1,0,0,1,59,50Zm1-10v2H56V40Z"></path><path d="M10.816,39H23.184a2.982,2.982,0,0,0,5.632,0H31a1,1,0,0,0,1-1V34a1,1,0,0,0-.291-.706l-1.991-2A1,1,0,0,0,29.009,31H27.37l-6.719-5.759A1,1,0,0,0,20,25H11.236a2.983,2.983,0,0,0-2.683,1.658L6.382,31H4a2,2,0,0,0-2,2v5a1,1,0,0,0,1,1H5.184a2.982,2.982,0,0,0,5.632,0ZM26,39a1,1,0,1,1,1-1A1,1,0,0,1,26,39Zm-1.7-8H17V27h2.63ZM10.342,27.553A.994.994,0,0,1,11.236,27H15v4H8.618ZM4,33H28.594L30,34.413V37H28.816a2.982,2.982,0,0,0-5.632,0H10.816a2.982,2.982,0,0,0-5.632,0H4Zm4,6a1,1,0,1,1,1-1A1,1,0,0,1,8,39Z"></path></g></svg>