<svg xmlns="http://www.w3.org/2000/svg" height="512" viewBox="0 0 64 64" width="512"><g id="Breakdown-2" data-name="Breakdown"><path d="m32.626 37.178h4v2h-4z" transform="matrix(.966 -.259 .259 .966 -8.701 10.263)"></path><path d="m18.137 41.061h4v2h-4z" transform="matrix(.966 -.259 .259 .966 -10.2 6.645)"></path><path d="m16.447 54.205h2v2h-2z" transform="matrix(.966 -.259 .259 .966 -13.693 6.397)"></path><path d="m45.425 46.44h2v2h-2z" transform="matrix(.966 -.259 .259 .966 -10.696 13.632)"></path><path d="m59.528 10.3a.938.938 0 0 1 -.528-.88v-1.6a3 3 0 1 0 -2 0v1.6a2.916 2.916 0 0 0 1.764 2.731 2 2 0 1 1 -2.764 1.849h-2a3.95 3.95 0 0 0 3 3.857v18.822l-1.2-4.49a2.98 2.98 0 0 0 -3.188-2.21l-8.488.823 6.6-11.43 1.531-.411-.517-1.932-1.932.518a1 1 0 0 0 -.607.466l-7.171 12.415-9.113-8.008a2.989 2.989 0 0 0 -2.757-.644l-16.209 4.343a3.01 3.01 0 0 0 -2.118 2.108l-3.223 11.817-5.375 2.186a3 3 0 0 0 -1.768 3.556l2.908 10.851a2.991 2.991 0 0 0 3.673 2.121l2.98-.8a6.988 6.988 0 0 0 13.364-3.579l15.61-4.179a6.992 6.992 0 0 0 6.415 4.246 7.026 7.026 0 0 0 6.074-3.5 6.938 6.938 0 0 0 .882-4.326l2.974-.8a3.01 3.01 0 0 0 .655-.274v1.454a1.006 1.006 0 0 1 -1 1h-2v2h2a3.008 3.008 0 0 0 3-3v-29.137a3.993 3.993 0 0 0 .528-7.561zm-1.528-6.3a1 1 0 1 1 -1 1 1 1 0 0 1 1-1zm-3.8 29.968.518 1.931-3.864 1.036-.515-1.935zm-28.22-4.862 1.565 5.84-11.271 3.054.765-6.5zm1.932-.518 6.888-1.846 5.421 4.765-10.743 2.915zm-9.171 31.446a5 5 0 1 1 3.536-6.124 5.006 5.006 0 0 1 -3.536 6.124zm-3.106-11.591a7.005 7.005 0 0 0 -5.135 7.587l-2.976.8a1 1 0 0 1 -1.224-.71l-.259-.966 2.9-.777-.517-1.932-2.9.777-2.124-7.954a1 1 0 0 1 .59-1.185l5.833-2.372a1 1 0 0 0 .588-.663l3.349-12.294a1.006 1.006 0 0 1 .706-.7l16.21-4.343a.992.992 0 0 1 .918.214l1.406 1.231-16.479 4.415a1.993 1.993 0 0 0 -1.473 1.821l-.766 6.452a1.973 1.973 0 0 0 .745 1.637 2.006 2.006 0 0 0 1.764.37l11.263-3.018 3.623 13.523-7.8 2.091a7 7 0 0 0 -8.242-4.004zm35.12 1.5a5 5 0 1 1 -5.624-7.33 5.049 5.049 0 0 1 1.3-.172 5 5 0 0 1 4.321 7.5zm5.678-6.52a1 1 0 0 1 -.608.466l-2.974.8a6.991 6.991 0 0 0 -13.37 3.582l-5.872 1.574-3.624-13.53 12.478-3.343 10.339-1a1 1 0 0 1 .6.142l-3.579.959a2 2 0 0 0 -1.414 2.45l.517 1.932a2 2 0 0 0 2.45 1.414l3.863-1.036.518 1.932-2.9.777.518 1.932 2.9-.777.259.966a1 1 0 0 1 -.101.757z"></path><path d="m39.3 20h2a1.36 1.36 0 0 1 .465-1.021 3.322 3.322 0 0 0 0-4.62 1.358 1.358 0 0 1 0-2.048 3.29 3.29 0 0 0 .935-2.311h-2a1.362 1.362 0 0 1 -.466 1.024 3.326 3.326 0 0 0 0 4.622 1.356 1.356 0 0 1 0 2.045 3.28 3.28 0 0 0 -.934 2.309z"></path><path d="m45.3 18h2a1.36 1.36 0 0 1 .465-1.021 3.322 3.322 0 0 0 0-4.62 1.358 1.358 0 0 1 0-2.048 3.29 3.29 0 0 0 .935-2.311h-2a1.362 1.362 0 0 1 -.466 1.024 3.326 3.326 0 0 0 0 4.622 1.356 1.356 0 0 1 0 2.045 3.28 3.28 0 0 0 -.934 2.309z"></path></g></svg>