<svg xmlns="http://www.w3.org/2000/svg" id="Layer_5" height="512" viewBox="0 0 64 64" width="512"><path d="m20 43c-4.962 0-9-4.037-9-9s4.038-9 9-9 9 4.037 9 9-4.038 9-9 9zm0-16c-3.86 0-7 3.141-7 7s3.14 7 7 7 7-3.141 7-7-3.14-7-7-7z"></path><path d="m20 39c-2.757 0-5-2.243-5-5s2.243-5 5-5 5 2.243 5 5-2.243 5-5 5zm0-8c-1.654 0-3 1.346-3 3s1.346 3 3 3 3-1.346 3-3-1.346-3-3-3z"></path><path d="m24 17h2v10.756h-2z"></path><path d="m29.938 11.949-1.479-1.346 3.314-3.642c1.135-1.246 2.752-1.961 4.437-1.961h25.79v2h-25.79c-1.123 0-2.202.477-2.958 1.308z"></path><path d="m32 18h-8v-1c0-3.859 3.14-7 7-7h1c2.206 0 4 1.794 4 4s-1.794 4-4 4zm-5.899-2h5.899c1.103 0 2-.897 2-2s-.897-2-2-2h-1c-2.415 0-4.435 1.721-4.899 4z"></path><path d="m30 16h8.345v2h-8.345z"></path><path d="m8 27c-1.562 0-3.043-.603-4.171-1.697l1.393-1.436c.752.731 1.739 1.133 2.778 1.133 2.206 0 4-1.794 4-4 0-.867-.29-1.703-.838-2.418l1.587-1.217c.818 1.068 1.251 2.324 1.251 3.635 0 3.309-2.691 6-6 6z"></path><path d="m13.076 39h-9.076c-1.654 0-3-1.346-3-3v-2c0-1.654 1.346-3 3-3h8.256v2h-8.256c-.551 0-1 .448-1 1v2c0 .552.449 1 1 1h9.076z"></path><path d="m26.924 37h3.433v2h-3.433z"></path><path d="m63 39h-5v-2h3v-34h-24.434c-2.612 0-5.091 1.132-6.801 3.106l-10.257 11.835-6.697.893c-4.453.594-7.811 4.429-7.811 8.921v4.245h-2v-4.245c0-5.49 4.104-10.178 9.546-10.903l5.946-.793 9.761-11.263c2.091-2.412 5.121-3.796 8.313-3.796h26.434z"></path><path d="m44 34c-5.514 0-10-4.486-10-10s4.486-10 10-10 10 4.486 10 10-4.486 10-10 10zm0-18c-4.411 0-8 3.589-8 8s3.589 8 8 8 8-3.589 8-8-3.589-8-8-8z"></path><path d="m58.001 54h-5.501c-1.93 0-3.5-1.57-3.5-3.5s1.57-3.5 3.5-3.5h6.5v2h-6.5c-.827 0-1.5.673-1.5 1.5s.673 1.5 1.5 1.5h5.501c.801 0 1.554-.312 2.121-.879.566-.566.878-1.319.878-2.121v-.25c0-3.977-1.553-7.712-4.372-10.517-2.802-2.79-6.518-4.323-10.469-4.323-.022 0-.045 0-.068 0l-4.091.019c-8.273.036-15.002 6.797-15 15.071 0 1.654 1.347 3 3.001 3h5.499c.827 0 1.5-.673 1.5-1.5s-.673-1.5-1.5-1.5h-6.5v-2h6.5c1.93 0 3.5 1.57 3.5 3.5s-1.57 3.5-3.5 3.5h-5.499c-2.757 0-5-2.243-5.001-5-.002-9.372 7.62-17.03 16.991-17.071l4.092-.019h.077c4.483 0 8.699 1.74 11.879 4.905 3.198 3.184 4.959 7.422 4.96 11.935v.25c0 1.335-.52 2.591-1.464 3.535s-2.199 1.465-3.534 1.465z"></path><path d="m57 48h-2v-2c0-.552-.449-1-1-1h-20c-.551 0-1 .448-1 1v2h-2v-2c0-1.654 1.346-3 3-3h20c1.654 0 3 1.346 3 3z"></path><path d="m54 63h-20c-1.654 0-3-1.346-3-3v-7h2v7c0 .552.449 1 1 1h20c.551 0 1-.448 1-1v-7h2v7c0 1.654-1.346 3-3 3z"></path><path d="m41 44h-2v-3h-4v3h-2v-3c0-1.103.897-2 2-2h4c1.103 0 2 .897 2 2z"></path><path d="m55 44h-2v-3h-4v3h-2v-3c0-1.103.897-2 2-2h4c1.103 0 2 .897 2 2z"></path><path d="m43.895 59.447-1.79-.894 2.277-4.553h-4l3.723-7.447 1.79.894-2.277 4.553h4z"></path><path d="m50 16h12v2h-12z"></path><path d="m46 6h2v9h-2z"></path></svg>