<svg xmlns="http://www.w3.org/2000/svg" id="Layer_5" height="512" viewBox="0 0 64 64" width="512"><path d="m32 35c1.654 0 3-1.346 3-3s-1.346-3-3-3-3 1.346-3 3 1.346 3 3 3zm0-4c.551 0 1 .449 1 1s-.449 1-1 1-1-.449-1-1 .449-1 1-1z"></path><path d="m32 23c1.654 0 3-1.346 3-3s-1.346-3-3-3-3 1.346-3 3 1.346 3 3 3zm0-4c.551 0 1 .449 1 1s-.449 1-1 1-1-.449-1-1 .449-1 1-1z"></path><path d="m20.108 28.598c.471.272.986.402 1.495.402 1.038 0 2.048-.538 2.603-1.5.827-1.433.334-3.271-1.098-4.098-1.433-.827-3.271-.335-4.099 1.098-.4.694-.507 1.502-.299 2.276.207.775.704 1.421 1.398 1.822zm.634-3.098c.185-.32.521-.5.868-.5.169 0 .341.043.499.134.478.275.642.888.366 1.366s-.891.641-1.366.366c-.231-.133-.397-.349-.466-.607s-.035-.528.099-.759z"></path><path d="m23.108 40.599c1.432-.828 1.924-2.666 1.098-4.099-.827-1.432-2.666-1.925-4.098-1.099-1.433.827-1.925 2.666-1.099 4.099.555.961 1.565 1.499 2.604 1.499.509 0 1.024-.129 1.495-.4zm-2.366-2.099c-.276-.478-.111-1.091.366-1.366.479-.275 1.091-.11 1.366.366.276.478.111 1.091-.365 1.366-.478.277-1.092.112-1.367-.366z"></path><path d="m32 41c-1.654 0-3 1.346-3 3s1.346 3 3 3 3-1.346 3-3-1.346-3-3-3zm0 4c-.551 0-1-.448-1-1s.449-1 1-1 1 .448 1 1-.449 1-1 1z"></path><path d="m43.892 35.401c-1.433-.824-3.271-.332-4.098 1.099-.827 1.433-.334 3.271 1.098 4.099h.001c.471.271.986.4 1.495.4 1.038 0 2.049-.538 2.604-1.499.825-1.433.333-3.271-1.1-4.099zm-.634 3.099c-.275.477-.887.643-1.366.366-.478-.275-.642-.889-.366-1.366.275-.478.887-.643 1.366-.366.478.275.642.888.366 1.366z"></path><path d="m42.397 29c.509 0 1.024-.129 1.495-.401.694-.401 1.19-1.047 1.398-1.822.208-.774.101-1.583-.299-2.276-.828-1.433-2.666-1.926-4.099-1.098-1.433.827-1.925 2.666-1.098 4.098.555.96 1.565 1.499 2.603 1.499zm-.505-3.866c.157-.091.329-.134.499-.134.346 0 .683.179.868.5.134.231.169.501.1.759s-.235.474-.466.607c-.477.275-1.09.112-1.366-.366-.277-.478-.112-1.09.365-1.366z"></path><path d="m32 39c3.86 0 7-3.141 7-7 0-3.86-3.14-7-7-7s-7 3.14-7 7c0 3.859 3.14 7 7 7zm0-12c2.757 0 5 2.243 5 5s-2.243 5-5 5-5-2.243-5-5 2.243-5 5-5z"></path><path d="m9 11h2v2h-2z"></path><path d="m9 15h2v2h-2z"></path><path d="m9 19h2v2h-2z"></path><path d="m9 51h2v2h-2z"></path><path d="m9 47h2v2h-2z"></path><path d="m9 43h2v2h-2z"></path><circle cx="6" cy="36" r="1"></circle><circle cx="6" cy="28" r="1"></circle><path d="m32 1c-6.115 0-11.948 1.766-17 5.095v-1.095h-5.535l-1.006 1.509c-3.473 5.209-5.339 11.25-5.44 17.501-1.218.912-2.019 2.354-2.019 3.99 0 1.641.806 3.088 2.031 4-1.225.912-2.031 2.359-2.031 4 0 1.636.801 3.078 2.019 3.99.101 6.251 1.967 12.292 5.44 17.501l1.006 1.509h5.535v-1.095c5.053 3.329 10.885 5.095 17 5.095 17.093 0 31-13.906 31-31 0-17.093-13.907-31-31-31zm-29 27c0-1.654 1.346-3 3-3s3 1.346 3 3-1.346 3-3 3-3-1.346-3-3zm3 5c1.654 0 3 1.346 3 3s-1.346 3-3 3-3-1.346-3-3 1.346-3 3-3zm7 24h-2.465l-.412-.618c-3.083-4.625-4.811-9.95-5.07-15.478.307.06.623.096.947.096 2.757 0 5-2.243 5-5 0-1.641-.806-3.088-2.031-4 1.225-.912 2.031-2.359 2.031-4 0-2.757-2.243-5-5-5-.324 0-.64.036-.947.096.26-5.528 1.987-10.853 5.07-15.478l.412-.618h2.465zm19 4c-6.169 0-12.031-1.918-17-5.524v-15.042c3.114 6.251 9.555 10.566 17 10.566 10.477 0 19-8.523 19-19s-8.523-19-19-19c-7.445 0-13.886 4.315-17 10.566v-15.043c4.968-3.606 10.831-5.523 17-5.523 15.991 0 29 13.009 29 29 0 15.99-13.009 29-29 29zm-17-29c0-9.374 7.626-17 17-17s17 7.626 17 17-7.626 17-17 17-17-7.626-17-17z"></path><path d="m30.536 54.535h2v2h-2z" transform="matrix(.707 -.707 .707 .707 -30.033 38.565)"></path><path d="m27.707 51.707h2v2h-2z" transform="matrix(.707 -.707 .707 .707 -28.861 35.737)"></path><path d="m33.364 57.364h2v2h-2z" transform="matrix(.707 -.707 .707 .707 -31.208 41.405)"></path><path d="m46.229 52.65h2v2h-2z" transform="matrix(.259 -.966 .966 .259 -16.815 85.389)"></path><path d="m42.366 51.615h2v2h-2z" transform="matrix(.259 -.966 .966 .259 -18.693 80.856)"></path><path d="m38.502 50.579h2v2h-2z" transform="matrix(.259 -.966 .966 .259 -20.543 76.386)"></path><path d="m47.286 44.205h2v2h-2z" transform="matrix(.966 -.259 .259 .966 -10.055 14.038)"></path><path d="m55.014 42.135h2v2h-2z" transform="matrix(.966 -.259 .259 .966 -9.255 15.967)"></path><path d="m51.15 43.17h2v2h-2z" transform="matrix(.966 -.259 .259 .966 -9.655 15.002)"></path><path d="m54.536 31.465h2v2h-2z" transform="matrix(.707 -.707 .707 .707 -6.69 48.778)"></path><path d="m51.707 34.293h2v2h-2z" transform="matrix(.707 -.707 .707 .707 -9.518 47.607)"></path><path d="m57.364 28.636h2v2h-2z" transform="matrix(.707 -.707 .707 .707 -3.861 49.95)"></path><path d="m51.615 19.634h2v2h-2z" transform="matrix(.259 -.966 .966 .259 19.044 66.1)"></path><path d="m52.65 15.771h2v2h-2z" transform="matrix(.259 -.966 .966 .259 23.565 64.252)"></path><path d="m50.579 23.498h2v2h-2z" transform="matrix(.259 -.966 .966 .259 14.566 67.979)"></path><path d="m43.17 10.85h2v2h-2z" transform="matrix(.966 -.259 .259 .966 -1.562 11.836)"></path><path d="m42.135 6.986h2v2h-2z" transform="matrix(.966 -.259 .259 .966 -.597 11.436)"></path><path d="m44.205 14.714h2v2h-2z" transform="matrix(.966 -.259 .259 .966 -2.527 12.235)"></path><path d="m34.293 10.293h2v2h-2z" transform="matrix(.707 -.707 .707 .707 2.352 28.264)"></path><path d="m28.636 4.636h2v2h-2z" transform="matrix(.707 -.707 .707 .707 4.695 22.607)"></path><path d="m31.464 7.464h2v2h-2z" transform="matrix(.707 -.707 .707 .707 3.523 25.435)"></path><path d="m15.771 9.35h2v2h-2z" transform="matrix(.259 -.966 .966 .259 2.433 23.87)"></path><path d="m19.634 10.386h2v2h-2z" transform="matrix(.259 -.966 .966 .259 4.292 28.366)"></path><path d="m23.498 11.421h2v2h-2z" transform="matrix(.259 -.966 .966 .259 6.16 32.87)"></path><path d="m18.83 51.15h2v2.001h-2z" transform="matrix(.966 -.259 .259 .966 -12.822 6.909)"></path><path d="m17.795 47.286h2v2h-2z" transform="matrix(.966 -.259 .259 .966 -11.857 6.51)"></path><path d="m19.865 55.014h2v2h-2z" transform="matrix(.966 -.259 .259 .966 -13.786 7.309)"></path></svg>