<svg xmlns="http://www.w3.org/2000/svg" id="Layer_5" height="512" viewBox="0 0 64 64" width="512"><path d="m58 9h-3v-8h-46v8h-3c-2.757 0-5 2.243-5 5v34c0 2.757 2.243 5 5 5h16.612l-1.333 4h-5.279c-1.103 0-2 .897-2 2v2c0 1.103.897 2 2 2h32c1.103 0 2-.897 2-2v-2c0-1.103-.897-2-2-2h-5.279l-1.333-4h16.612c2.757 0 5-2.243 5-5v-34c0-2.757-2.243-5-5-5zm0 2c1.654 0 3 1.346 3 3v29h-2v-28c0-1.103-.897-2-2-2h-2v-2zm-1 32h-2v-28h2zm-4-40v40h-42v-40zm-44 40h-2v-28h2zm-3-32h3v2h-2c-1.103 0-2 .897-2 2v28h-2v-29c0-1.654 1.346-3 3-3zm42.001 50h-32.001v-2h32zm-7.389-4h-17.224l1.333-4h14.558zm17.388-6h-52c-1.654 0-3-1.346-3-3v-3h58v3c0 1.654-1.346 3-3 3z"></path><path d="m29 47h6v2h-6z"></path><path d="m37 47h2v2h-2z"></path><path d="m25 47h2v2h-2z"></path><path d="m16 25h2.556c.694 1.19 1.97 2 3.444 2s2.75-.81 3.444-2h13.113c.694 1.19 1.97 2 3.444 2s2.75-.81 3.444-2h2.555c1.654 0 3-1.346 3-3v-4.614c0-1.244-.782-2.373-1.947-2.81l-6.417-2.406-3.626-5.076c-.936-1.311-2.457-2.094-4.069-2.094h-9.416c-3.109 0-5.876 2.088-6.73 5.077l-.589 2.062-2.794.559c-1.398.279-2.412 1.516-2.412 2.942v6.36c0 1.654 1.346 3 3 3zm6 0c-1.103 0-2-.897-2-2s.897-2 2-2 2 .897 2 2-.897 2-2 2zm16-2h-7v-6h7zm-7-8v-4h2.93c.335 0 .646.167.832.445l2.37 3.555zm-2 0h-5.613l1.105-3.316c.137-.409.518-.684.949-.684h3.559zm-6 4.142v-2.142h6v6h-3c0-1.858-1.28-3.411-3-3.858zm19 5.858c-1.103 0-2-.897-2-2s.897-2 2-2 2 .897 2 2-.897 2-2 2zm7-7.614v.614h-1c-.551 0-1-.449-1-1v-1.057l1.351.506c.388.146.649.523.649.937zm-28.282-6.76c.61-2.135 2.587-3.626 4.808-3.626h9.416c.967 0 1.879.47 2.441 1.256l3.981 5.573 3.636 1.364v1.807c0 1.654 1.346 3 3 3h1v2c0 .551-.449 1-1 1h-2c0-2.206-1.794-4-4-4-.732 0-1.409.212-2 .556v-3.859l-3.574-5.361c-.558-.836-1.491-1.336-2.496-1.336h-8.488c-1.293 0-2.437.824-2.846 2.051l-1.596 4.787v3.304c-1.72.447-3 2-3 3.858h-2c-.551 0-1-.449-1-1v-2h1c1.654 0 3-1.346 3-3v-2.98l.794-.159zm-4.914 4.033 1.196-.239v2.58c0 .551-.449 1-1 1h-1v-2.36c0-.475.338-.888.804-.981z"></path><path d="m19 41c3.309 0 6-2.691 6-6s-2.691-6-6-6-6 2.691-6 6 2.691 6 6 6zm4-6c0 .539-.11 1.052-.304 1.522l-2.696-2.022v-3.358c1.72.447 3 2 3 3.858zm-5-3.858v4.358l3.482 2.612c-.684.547-1.54.888-2.482.888-2.206 0-4-1.794-4-4 0-1.858 1.28-3.411 3-3.858z"></path><path d="m49 37h2v2h-2z"></path><path d="m40 37h7v2h-7z"></path><path d="m27 37h11v2h-11z"></path><path d="m40 33h11v2h-11z"></path><path d="m36 33h2v2h-2z"></path><path d="m27 33h7v2h-7z"></path><path d="m40 29h11v2h-11z"></path><path d="m27 29h11v2h-11z"></path></svg>