<svg xmlns="http://www.w3.org/2000/svg" viewBox="0 0 512 512" width="512" height="512"><g id="Out_line" data-name="Out line"><path d="M488,56H464V72h16v48H464V96a8.00008,8.00008,0,0,0-8-8h-1.22266L447.8916,46.68506A8.00048,8.00048,0,0,0,440,40H408a8.00048,8.00048,0,0,0-7.8916,6.68506L393.22266,88H392a8.00008,8.00008,0,0,0-8,8v24H368V72h16V56H128V72h16v48H128V96a8.00008,8.00008,0,0,0-8-8h-1.22266L111.8916,46.68506A8.00048,8.00048,0,0,0,104,40H72a8.00048,8.00048,0,0,0-7.8916,6.68506L57.22266,88H56a8.00008,8.00008,0,0,0-8,8v24H32V72H48V56H24a8.00008,8.00008,0,0,0-8,8v96a8.00008,8.00008,0,0,0,8,8h8V408H24a8.00008,8.00008,0,0,0-8,8v32a8.00008,8.00008,0,0,0,8,8H488a8.00008,8.00008,0,0,0,8-8V416a8.00008,8.00008,0,0,0-8-8H472V168h16a8.00008,8.00008,0,0,0,8-8V64A8.00008,8.00008,0,0,0,488,56Zm-73.22266,0h18.44532l5.33325,32H409.44409ZM400,104h48v16H400ZM200,72H312V88H200Zm-40,0h24V96a8.00008,8.00008,0,0,0,8,8H320a8.00008,8.00008,0,0,0,8-8V72h24v48H160ZM78.77734,56H97.22266l5.334,32H73.44336ZM64,104h48v16H64ZM480,440H32V424H480Zm-24-32H48V168H456Zm24-256H32V136H480Z"></path><rect x="64" y="184" width="376" height="16"></rect><rect x="64" y="376" width="376" height="16"></rect><path d="M245.86426,359.70947a7.99654,7.99654,0,0,0,8.99609-3.59375l48-80A8,8,0,0,0,296,264H262.94824l23.708-35.5625A7.99956,7.99956,0,0,0,280,216H232a8,8,0,0,0-7.80957,6.26465l-16,72A8.00016,8.00016,0,0,0,216,304h24v48A7.99987,7.99987,0,0,0,245.86426,359.70947ZM225.97266,288,238.417,232h26.63477l-23.708,35.5625A7.99956,7.99956,0,0,0,248,280h33.87012L256,323.11768V296a8.00008,8.00008,0,0,0-8-8Z"></path></g></svg>