<svg xmlns="http://www.w3.org/2000/svg" height="512" viewBox="0 0 512 512" width="512"><g id="Out_line" data-name="Out line"><path d="m24 96h48a8.00008 8.00008 0 0 0 8-8v-16h-16v8h-32v-32h8v-16h-16a8.00008 8.00008 0 0 0 -8 8v48a8.00008 8.00008 0 0 0 8 8z"></path><path d="m24 176h48a8.00008 8.00008 0 0 0 8-8v-16h-16v8h-32v-32h8v-16h-16a8.00008 8.00008 0 0 0 -8 8v48a8.00008 8.00008 0 0 0 8 8z"></path><path d="m24 256h48a8.00008 8.00008 0 0 0 8-8v-16h-16v8h-32v-32h8v-16h-16a8.00008 8.00008 0 0 0 -8 8v48a8.00008 8.00008 0 0 0 8 8z"></path><path d="m120 56h144v16h-144z"></path><path d="m296 56h200v16h-200z"></path><path d="m120 136h48v16h-48z"></path><path d="m200 136h144v16h-144z"></path><path d="m376 136h120v16h-120z"></path><path d="m120 216h120v16h-120z"></path><path d="m280 216h120v16h-120z"></path><path d="m41.373 40h45.255v16h-45.255z" transform="matrix(.707 -.707 .707 .707 -15.196 59.314)"></path><path d="m41.373 120h45.255v16h-45.255z" transform="matrix(.707 -.707 .707 .707 -71.766 82.751)"></path><path d="m41.373 200h45.255v16h-45.255z" transform="matrix(.707 -.707 .707 .707 -128.337 106.185)"></path><path d="m495.09473 350.53223a53.47318 53.47318 0 0 0 -22.90723-34.68848 37.52168 37.52168 0 0 1 -5.71-4.68066l-4.92969-4.92969-10-10a136.51523 136.51523 0 0 0 -74.55078-38.34876l-.01269-.0028-.01612-.00257-.00732-.00134v.00024a135.85077 135.85077 0 0 0 -22.55074-1.87817h-100.25a215.99369 215.99369 0 0 0 -152.73731 63.26318l-16.82544 16.82544a72.02023 72.02023 0 0 0 -56.00073 31.21949 70.94787 70.94787 0 0 0 -10.67188 24.11865 72.01771 72.01771 0 0 0 -1.9248 16.57324v48a8.00008 8.00008 0 0 0 8 8h42.741a48.00593 48.00593 0 0 0 90.51806 0h61.49314a47.99023 47.99023 0 0 0 90.49585 0h69.50395a47.99041 47.99041 0 0 0 90.4961 0h18.7519a8.00008 8.00008 0 0 0 8-8v-95.66016a53.578 53.578 0 0 0 -.90527-9.80761zm-113.16993-75.34363a120.49243 120.49243 0 0 1 58.3086 32.35828l3.832 3.832a116.2141 116.2141 0 0 1 -71.6054 24.62112h-2.70068zm-29.89062-3.1886h2.376c3.92089 0 7.84082.19092 11.72168.56982l-12.68997 63.43018h-41.44189v-16a8.00005 8.00005 0 0 0 -6.05957-7.76123l-18.56934-4.64233 5.65625-7.06958a75.64732 75.64732 0 0 1 59.00684-28.52686zm-56.03418 54.24609v9.75391h-31.35352l11.729-14.65991zm-183.2627 4.33057a199.98356 199.98356 0 0 1 141.42286-58.57666h46.30468a92.34994 92.34994 0 0 0 -19.93164 18.53174l-36.37793 45.46826h-136.84179zm-73.78295 50.37207a86.747 86.747 0 0 1 29.33565 14.27148l2.22949 1.67139a56.16516 56.16516 0 0 1 -21.6084-.064l-3.48629-.7026a24.08006 24.08006 0 0 1 -10.7668-5.19141 54.85022 54.85022 0 0 1 4.29635-9.98486zm73.04565 99.05127a32.12333 32.12333 0 0 1 -27.70947-16h55.41894a32.12333 32.12333 0 0 1 -27.70947 16zm-33.19336-32 20-16h42.38672l20 16zm185.19336 32a31.99908 31.99908 0 0 1 -.668-63.99121c.04688-.001.09473-.00244.1416-.0044.10547-.0039.21289-.00488.32227-.00488.06738 0 .13574.00049.2041.00049.17871 0 .35645-.00146.52637.00439.04687.002.09472.00342.1416.0044a31.99908 31.99908 0 0 1 -.66794 63.99121zm160 0a31.99908 31.99908 0 0 1 -.668-63.99121c.04688-.001.09473-.00244.1416-.0044.10547-.0039.21289-.00488.32227-.00488.06738 0 .13574.00049.2041.00049.17969 0 .35547-.00146.52637.00439.04687.002.09472.00342.1416.0044a31.99908 31.99908 0 0 1 -.66794 63.99121zm56-32h-8a48.24644 48.24644 0 0 0 -46.94629-47.98682c-.68555-.02246-1.42187-.02246-2.10742 0a48.24644 48.24644 0 0 0 -46.94629 47.98682h-64a48.24644 48.24644 0 0 0 -46.94629-47.98682c-.68555-.02246-1.42187-.02246-2.10742 0a48.24644 48.24644 0 0 0 -46.94629 47.98682h-29.19312l-37.80883-30.24707a8.0027 8.0027 0 0 0 -4.99805-1.75293h-48a8.0027 8.0027 0 0 0 -4.99805 1.75293l-37.80883 30.24707h-21.19312v-39.77124a39.82785 39.82785 0 0 0 10.27832 3.58374l3.48633.70264a72.18013 72.18013 0 0 0 36.88769-2.29688l7.87989-2.62988a7.99951 7.99951 0 0 0 2.26757-13.98877l-14.90918-11.1792a102.769 102.769 0 0 0 -28.45385-14.98975 55.97812 55.97812 0 0 1 38.56323-15.43066h284.46a132.18279 132.18279 0 0 0 82.998-29.23047 53.51817 53.51817 0 0 0 7.85449 6.38672 37.56416 37.56416 0 0 1 12.25488 13.50049c.38184.71277.72657 1.4425 1.06055 2.17651a63.11051 63.11051 0 0 0 -34.28516 17.51 8.00088 8.00088 0 0 0 .66016 11.90381l36.99708 29.59767zm0-64.64478-19.31641-15.45336a47.18252 47.18252 0 0 1 19.31641-7.41517z"></path><path d="m213.13477 362.01465h-.001l-9.75391 1.95068a102.80552 102.80552 0 0 0 -41.2705 18.45313l-14.90916 11.18164a8.00007 8.00007 0 0 0 2.26953 13.98926l7.87695 2.62548a72.10884 72.10884 0 0 0 36.88867 2.29688l3.47656-.69531a40.17627 40.17627 0 0 0 30.96-29.522l.78906-3.15576a13.99928 13.99928 0 0 0 -16.32617-17.124zm.01562 16.39941a24.10714 24.10714 0 0 1 -18.57715 17.71294l-3.47656.69532a56.08516 56.08516 0 0 1 -21.61523.06689l2.22753-1.6709a86.71466 86.71466 0 0 1 34.8086-15.56347l6.65527-1.33106z"></path><circle cx="264" cy="448" r="8"></circle><circle cx="424" cy="448" r="8"></circle><path d="m404.68652 368h-4.68652v16h4.68652a35.08124 35.08124 0 0 0 24.97071-10.34326l-11.31446-11.31348a19.18424 19.18424 0 0 1 -13.65625 5.65674z"></path><path d="m312 368h32v16h-32z"></path></g></svg>