<svg xmlns="http://www.w3.org/2000/svg" id="Capa_1" height="512" viewBox="0 0 480 480" width="512"><path d="m211.562 105.344-69.984 46.656h-37.578c-.86 0-1.714.139-2.53.411l-48 16c-3.266 1.089-5.47 4.146-5.47 7.589v48c0 4.418 3.582 8 8 8h32.805c4.41 21.647 25.533 35.62 47.179 31.211 15.721-3.203 28.008-15.489 31.211-31.211h137.62c.023.113.04.226.064.339 3.935 18.431 20.193 31.622 39.04 31.675 2.83-.002 5.652-.301 8.42-.893 15.555-3.324 27.668-15.539 30.861-31.121h8.8c1.731 0 3.415-.561 4.8-1.6l32-24c2.014-1.511 3.2-3.882 3.2-6.4v-32c0-3.443-2.203-6.5-5.47-7.589l-22.984-7.661-71.108-47.406c-1.314-.877-2.858-1.344-4.438-1.344h-112c-1.58 0-3.124.467-4.438 1.344zm-83.562 142.656c-13.255 0-24-10.745-24-24s10.745-24 24-24 24 10.745 24 24c-.015 13.248-10.752 23.985-24 24zm39.2-32c-4.41-21.647-25.533-35.62-47.179-31.211-15.722 3.203-28.008 15.49-31.211 31.211h-24.81v-16h16v-16h-16v-2.234l41.3-13.766h150.7v21.333l-20 26.667zm196.941 21.06c-7.213 11.12-22.076 14.287-33.196 7.074s-14.287-22.076-7.074-33.196c3.463-5.339 8.905-9.084 15.129-10.411 1.66-.355 3.353-.534 5.051-.535 13.259.03 23.982 10.803 23.952 24.062-.011 4.617-1.352 9.132-3.864 13.006zm31.426-70.4c.591.395 1.233.709 1.908.933l18.525 6.173v10.234h-16v16h10.667l-21.334 16h-6.148c-.023-.113-.04-.226-.064-.339-4.622-21.608-25.885-35.378-47.494-30.756-15.539 3.324-27.638 15.528-30.827 31.095h-48.8l14.4-19.2c1.039-1.385 1.6-3.069 1.6-4.8v-24h56c.86 0 1.714-.139 2.53-.411l44.288-14.762zm-99.567-46.66h29.578l32.374 21.583-31.252 10.417h-30.7zm-16 0v32h-109.578l48-32z"></path><path d="m474.837 88.52-232-88c-1.828-.693-3.846-.693-5.674 0l-232 88c-3.108 1.179-5.163 4.156-5.163 7.48v71.334c-.048 145.794 97.316 273.653 237.873 312.378 1.392.384 2.862.384 4.254 0 140.557-38.725 237.92-166.584 237.873-312.378v-71.334c0-3.324-2.055-6.301-5.163-7.48zm-386.837 276.723c-3.09-3.688-6.101-7.449-9.033-11.284-16.846-22.112-30.619-46.405-40.943-72.215l21.86 13.116c1.243.746 2.666 1.14 4.116 1.14h24zm376-197.909c.047 137.776-91.438 258.814-224 296.359-51.107-14.455-97.594-41.912-134.924-79.693h38.687l126.614 7.448c.787.046 1.572.069 2.357.069 6.69.001 13.274-1.679 19.146-4.885l58.647-31.989c14.06-7.67 19.24-25.286 11.569-39.346-.667-1.223-1.421-2.395-2.257-3.509-7.758-10.258-21.321-14.22-33.381-9.752l-30.5 11.439c.029-.487.044-.979.044-1.473-.015-13.249-10.751-23.985-24-24h-12.69l-21.656-21.657c-1.5-1.501-3.535-2.344-5.657-2.344h-56c-1.242 0-2.467.289-3.578.845l-30.309 15.154h-75.9l-36.561-21.938c-9.065-29.389-13.666-59.973-13.651-90.728v-65.813l224-84.965 224 84.965zm-360 200.666v-72h32v72zm86.562-48h15.016l21.984 14.656c1.314.877 2.858 1.344 4.438 1.344h48c.959 0 1.911-.172 2.809-.509l49.269-18.476c6.724-2.517 14.215.894 16.732 7.619 2.268 6.06-.266 12.865-5.945 15.966l-58.646 31.989c-3.945 2.152-8.414 3.153-12.9 2.889l-119.319-7.021v-75.513l25.889-12.944h50.8l21.656 21.657c1.5 1.5 3.534 2.343 5.655 2.343h16c4.418 0 8 3.582 8 8s-3.582 8-8 8h-37.578l-21.984-14.656c-1.314-.877-2.858-1.344-4.438-1.344h-17.438c-4.418 0-8 3.582-8 8s3.582 8 8 8z"></path><path d="m240 431.056-44.422-22.211-7.156 14.31 48 24c2.252 1.126 4.904 1.126 7.156 0l48-24-7.156-14.31z"></path><path d="m237.029 40.572-40 16 5.942 14.856 37.029-14.812 37.029 14.812 5.942-14.856-40-16c-1.907-.762-4.035-.762-5.942 0z"></path></svg>