<svg xmlns="http://www.w3.org/2000/svg" viewBox="0 0 512 512" width="512" height="512"><g id="Out_line" data-name="Out line"><path d="M432,336a24.02718,24.02718,0,0,0-24-24h-6.11133a23.86789,23.86789,0,0,0-21.46582,13.26709l-7.39087,14.781a44.65113,44.65113,0,0,1-12.86206-18.37818A76.52542,76.52542,0,0,0,288.5,272h-65a76.89152,76.89152,0,0,0-71.67188,49.67432,45.05506,45.05506,0,0,1-12.86181,18.37085l-7.38916-14.77759A23.86746,23.86746,0,0,0,110.11133,312H104a24,24,0,0,0,0,48h7.6333a60.83026,60.83026,0,0,0-6.4917,8.66748c-.71094,1.13965-1.40722,2.35791-2.0498,3.58594A61.21654,61.21654,0,0,0,96,400.82031V488a8.00008,8.00008,0,0,0,8,8h48a8.00008,8.00008,0,0,0,8-8V464H352v24a8.00008,8.00008,0,0,0,8,8h48a8.00008,8.00008,0,0,0,8-8V400.82031A61.25,61.25,0,0,0,400.37769,360H408A24.02718,24.02718,0,0,0,432,336Zm-37.2666-3.57812A7.95653,7.95653,0,0,1,401.88867,328H408a8,8,0,0,1,0,16H388.94434ZM333.76636,448l-14.17652-42.52979A8.00071,8.00071,0,0,0,312,400H200a8.00071,8.00071,0,0,0-7.58984,5.47021L178.23364,448H112V409.57861A47.80326,47.80326,0,0,0,136,416h24a8.00008,8.00008,0,0,0,8-8,65.30469,65.30469,0,0,0-20.79736-48H364.79639A65.30658,65.30658,0,0,0,344,408a8.00008,8.00008,0,0,0,8,8h24a47.80326,47.80326,0,0,0,24-6.42139V448ZM128.646,365.84131A49.41263,49.41263,0,0,1,151.36426,400H136a31.805,31.805,0,0,1-22.77881-9.5304,45.07829,45.07829,0,0,1,4.02588-10.75817q.71484-1.36451,1.48926-2.60743A45.0352,45.0352,0,0,1,128.646,365.84131ZM184,344a16,16,0,0,1,32,0Zm104,0a16,16,0,0,1,32,0Zm88,56H360.63574a49.40731,49.40731,0,0,1,22.73364-34.16907,45.0125,45.0125,0,0,1,15.41041,24.63758A31.805,31.805,0,0,1,376,400ZM223.5,288H248v8h-8v16h32V296h-8v-8h24.5a60.52565,60.52565,0,0,1,56.6875,39.28418A60.614,60.614,0,0,0,354.69336,344H336a32,32,0,0,0-64,0H232a32,32,0,0,0-64,0H157.29614a60.9574,60.9574,0,0,0,9.51538-16.7124A60.81655,60.81655,0,0,1,223.5,288ZM96,336a8.00917,8.00917,0,0,1,8-8h6.11133a7.95612,7.95612,0,0,1,7.15527,4.42236L123.05566,344H104A8.00917,8.00917,0,0,1,96,336Zm48,144H112V464h32Zm51.09961-32,10.666-32H306.23438l10.666,32ZM368,480V464h32v16Z"></path><path d="M488,16H24a8.00008,8.00008,0,0,0-8,8V488a8.00008,8.00008,0,0,0,8,8H56a8.00008,8.00008,0,0,0,8-8V248H448V488a8.00008,8.00008,0,0,0,8,8h32a8.00008,8.00008,0,0,0,8-8V24A8.00008,8.00008,0,0,0,488,16ZM32,32H480V72H32Zm0,448V88H48V480ZM64,232V88H448v16H80v16H448v16H80v16H448v16H80v16H448v16H80v16H448v16ZM464,480V88h16V480Z"></path></g></svg>