<svg xmlns="http://www.w3.org/2000/svg" id="Capa_1" height="512" viewBox="0 0 478.281 478.281" width="512"><path d="m40.629 182.154h32.051c13.249 17.645 38.294 21.209 55.94 7.96 3.016-2.264 5.696-4.944 7.96-7.96h17.733c-10.968 13.252-18.741 28.848-22.719 45.584-1.013 4.301 1.653 8.609 5.954 9.621 4.301 1.013 8.609-1.653 9.621-5.953 4.532-19.002 14.732-36.178 29.247-49.252h128.389c13.236 11.905 22.908 27.251 27.937 44.328l-5.838-3.887c-3.678-2.448-8.644-1.451-11.092 2.227s-1.451 8.644 2.227 11.092l24.01 15.984c3.678 2.449 8.644 1.452 11.093-2.226l15.988-24.011c2.448-3.678 1.451-8.644-2.227-11.092s-8.644-1.451-11.092 2.227l-6.479 9.732c-4.049-16.283-11.705-31.447-22.402-44.373h17.756c13.249 17.645 38.294 21.209 55.94 7.96 3.016-2.264 5.696-4.944 7.96-7.96h.044c1.242 0 2.467-.289 3.578-.845l32-16c2.71-1.355 4.422-4.125 4.422-7.155v-56c0-2.81-1.474-5.414-3.884-6.86l-80-48c-1.243-.746-2.666-1.14-4.116-1.14h-7.487c-.171-.011-.34-.037-.513-.037h-126.623c-13.099.009-25.782 4.601-35.85 12.98l-30.628 25.525-91.32-45.66c-1.111-.556-2.337-.845-3.58-.845h-24c-4.418.003-7.998 3.587-7.994 8.006.003 4.414 3.581 7.991 7.994 7.994h22.111l64.074 32.037h-24.585c-15.787.022-31.104 5.373-43.469 15.187-16.576 13.185-26.204 33.233-26.131 54.413v18.4c0 4.417 3.581 7.999 8 7.999zm64-.037c-13.255 0-24-10.745-24-24s10.745-24 24-24 24 10.745 24 24c-.015 13.249-10.752 23.985-24 24zm171.694-15.963h-75.646c12.51-5.729 26.113-8.68 39.872-8.649h.064c12.567.005 25.012 2.476 36.627 7.274zm100.306 15.963c-13.255 0-24-10.745-24-24s10.745-24 24-24 24 10.745 24 24c-.015 13.249-10.752 23.985-24 24zm-20.184-119.963h1.968l74.216 44.529v46.527l-16.136 8.068c.082-1.044.136-2.1.136-3.161-.01-22.091-17.927-39.992-40.018-39.982s-39.992 17.927-39.982 40.018c.001 2.687.273 5.368.812 8.001h-26.758c-3.277-2.63-6.7-5.072-10.253-7.316l2.855-4.283c.877-1.314 1.344-2.858 1.344-4.438v-48h16c2.43.001 4.728-1.103 6.247-3zm-156.054 9.266c7.189-5.982 16.245-9.26 25.598-9.266h109.966l-19.171 23.963h-134.022zm-151.762 84.334c-.062-16.306 7.343-31.743 20.1-41.9 9.53-7.562 21.334-11.684 33.5-11.7h58.4c.25 0 .5-.014.745-.037h127.255v45.578l-2.373 3.559c-10.834-4.836-22.368-7.92-34.17-9.137h12.543c4.418 0 8-3.582 8-8s-3.582-8-8-8h-24c-4.418.008-7.993 3.597-7.985 8.015.006 3.288 2.023 6.237 5.085 7.435-24.464.644-48.048 9.261-67.164 24.541l-.055.046h-26.693c4.429-21.643-9.526-42.778-31.169-47.207s-42.778 9.526-47.207 31.169c-1.083 5.291-1.083 10.747 0 16.038h-16.812z"></path><path d="m23.141 419.075c29.271 26.887 74.782 25.008 101.737-4.2 2.592-2.826 4.951-5.858 7.052-9.066h217.708c20.771 33.879 65.073 44.505 98.952 23.734 13.133-8.052 23.336-20.106 29.106-34.389 1.657-4.096-.32-8.759-4.416-10.416-.953-.385-1.971-.584-2.999-.584h-35.3c-8.837 0-16-7.163-16-16s7.163-16 16-16h35.3c4.418-.001 7.999-3.583 7.999-8.001 0-1.028-.198-2.046-.584-2.999-14.872-36.834-56.788-54.637-93.622-39.765-12.504 5.049-23.337 13.511-31.263 24.421h-26.711c11.495-13.571 19.598-29.681 23.641-47 .994-4.305-1.69-8.601-5.995-9.595s-8.601 1.69-9.595 5.995c-4.588 19.63-15.216 37.327-30.388 50.6h-126.291c-14.241-12.444-24.494-28.812-29.477-47.056l8.2 5.459c3.702 2.412 8.658 1.366 11.07-2.336 2.378-3.65 1.398-8.532-2.204-10.982l-24.01-15.984c-3.678-2.448-8.644-1.451-11.092 2.226l-15.985 24.017c-2.448 3.678-1.451 8.644 2.227 11.092s8.644 1.451 11.092-2.227l5.1-7.665c4.269 15.985 12.027 30.826 22.716 43.454h-23.531c-3.13-4.632-6.787-8.884-10.9-12.671-11.466-10.619-26.102-17.179-41.659-18.672-15.208-1.467-30.491 1.901-43.673 9.625-3.805 2.246-5.069 7.151-2.823 10.956.342.58.756 1.114 1.232 1.59l32.5 32.5c3.105 3.143 3.074 8.209-.07 11.314-3.116 3.078-8.128 3.078-11.244-.001l-32.5-32.5c-3.124-3.124-8.19-3.123-11.314.001-.475.475-.888 1.008-1.23 1.587-17.115 29.262-11.609 66.484 13.244 89.538zm255.246-77.269c-11.917 5.102-24.748 7.722-37.711 7.7h-.065c-12.945-.002-25.755-2.621-37.662-7.7zm-259.215 5.5 24.457 24.455c9.429 9.316 24.625 9.224 33.941-.205 9.236-9.348 9.236-24.386 0-33.735l-24.484-24.479c25.369-9.03 53.575 1.257 67.174 24.5 1.435 2.453 4.063 3.961 6.905 3.961h44.564c8.554 6.67 18.034 12.06 28.14 16h-79.24v16h240v-16h-79.3c10.109-3.938 19.59-9.328 28.144-16h47.557c2.732-.001 5.275-1.396 6.744-3.7 16.558-26.082 51.124-33.802 77.206-17.244 6.281 3.987 11.703 9.187 15.949 15.295h-21.95c-17.673 0-32 14.327-32 32s14.327 32 32 32h21.95c-17.656 25.372-52.536 31.627-77.908 13.971-7.411-5.157-13.464-12.03-17.643-20.033-1.381-2.635-4.111-4.286-7.086-4.286h-226.835c-2.87 0-5.52 1.537-6.945 4.029-15.303 26.857-49.481 36.223-76.338 20.92-23.59-13.441-34.13-41.875-25.002-67.445z"></path></svg>