<svg xmlns="http://www.w3.org/2000/svg" id="Layer_5" height="512" viewBox="0 0 64 64" width="512"><path d="m56 45h-17.111c1.301-1.272 2.111-3.042 2.111-5v-8h3c1.654 0 3-1.346 3-3v-1h5c1.654 0 3-1.346 3-3v-2c0-1.654-1.346-3-3-3h-5v-1c0-1.654-1.346-3-3-3h-3v-8c0-3.859-3.141-7-7-7h-4c-3.859 0-7 3.141-7 7v8h-3c-1.654 0-3 1.346-3 3v1h-5c-1.654 0-3 1.346-3 3v2c0 1.654 1.346 3 3 3h5v1c0 1.654 1.346 3 3 3h3v8c0 1.958.81 3.728 2.111 5h-1.111c-3.859 0-7 3.141-7 7v4c0 3.859 3.141 7 7 7h32c3.859 0 7-3.141 7-7v-4c0-3.859-3.141-7-7-7zm-1.118 8.993-2 4.003 1.5 3.004h-3.764l-1.5-3.004 2-4.003-2-3.997 1.5-2.996h3.763l-1.499 2.996zm-23.764 4.003 2-4.003-2-3.997 1.5-2.996h1.382 2.381l-1.499 2.996 2 3.997-2 4.003 1.5 3.004h-3.764zm6 0 2-4.003-2-3.997 1.5-2.996h3.763l-1.499 2.996 2 3.997-2 4.003 1.5 3.004h-3.764zm6 0 2-4.003-2-3.997 1.5-2.996h3.763l-1.499 2.996 2 3.997-2 4.003 1.5 3.004h-3.764zm-15.122-46.878 3.997-2 4.003 2 3.004-1.5v3.764l-3.004 1.5-4.003-2-3.997 2-2.996-1.5v-3.763zm11.004 20.264-3.004 1.5-4.003-2-3.997 2-2.996-1.5v-3.763l2.996 1.499 3.997-2 4.003 2 3.004-1.5zm0-6-3.004 1.5-4.003-2-3.997 2-2.996-1.5v-3.763l2.996 1.499 3.997-2 4.003 2 3.004-1.5zm-11.004-8.264 3.997-2 4.003 2 3.004-1.5v3.764l-3.004 1.5-4.003-2-3.997 2-2.996-1.5v-3.763zm-2.996 16.501 2.996 1.499 3.997-2 4.003 2 3.004-1.5v3.764l-3.004 1.5-4.003-2-3.997 2-2.996-1.5zm27-11.619c.552 0 1 .448 1 1v2c0 .552-.448 1-1 1h-5v-4zm-8-4c.552 0 1 .448 1 1v10c0 .552-.448 1-1 1h-3v-12zm-14-15h4c2.555 0 4.645 1.934 4.94 4.411l-2.944 1.471-4.003-2-3.997 2-2.937-1.47c.296-2.477 2.386-4.412 4.941-4.412zm-18 23c-.552 0-1-.448-1-1v-2c0-.552.448-1 1-1h5v4zm8 4c-.552 0-1-.448-1-1v-10c0-.552.448-1 1-1h3v12zm5 10v-.381l2.996 1.499 3.997-2 4.003 2 3.004-1.5v.382c0 2.757-2.243 5-5 5h-4c-2.757 0-5-2.243-5-5zm5.381 7-1.499 2.996 2 3.997-2 4.003 1.5 3.004h-3.764l-1.5-3.004 2-4.003-2-3.997 1.5-2.996h3.382zm-11.381 9v-4c0-2.757 2.243-5 5-5h.381l-1.499 2.996 2 3.997-2 4.003 1.5 3.004h-.382c-2.757 0-5-2.243-5-5zm42 0c0 2.555-1.934 4.645-4.411 4.94l-1.471-2.944 2-4.003-2-3.997 1.47-2.937c2.477.296 4.412 2.386 4.412 4.941z"></path><path d="m11 15.805 10.887-6.805-10.887-6.805v2.805h-10v8h10zm-8-4.805v-4h10v-1.195l5.113 3.195-5.113 3.195v-1.195z"></path><path d="m53 33v-2.805l-10.887 6.805 10.887 6.805v-2.805h10v-8zm8 6h-10v1.195l-5.113-3.195 5.113-3.195v1.195h10z"></path></svg>