<svg xmlns="http://www.w3.org/2000/svg" xmlns:xlink="http://www.w3.org/1999/xlink" x="0px" y="0px" viewBox="0 0 1000 1000" xml:space="preserve">
<metadata> Svg Vector Icons : http://www.onlinewebfonts.com/icon </metadata>
<g><g transform="translate(0.000000,511.000000) scale(0.100000,-0.100000)"><path d="M4192.5,4816.2c-422.4-106.8-787.6-203.7-810-218.6c-109.3-62.1-817.4-650.9-852.2-708.1c-47.2-79.5-146.6-703.1-126.7-807.5c7.5-44.7,37.3-111.8,69.6-149.1c47.2-62.1,54.7-101.9,57.2-345.3c2.5-208.7,14.9-313.1,57.1-442.2c69.6-211.2,201.3-357.8,345.4-380.1c91.9-14.9,99.4-22.4,139.1-151.6c186.3-588.8,618.6-1130.5,1098.2-1378.9l218.6-114.3L4214.9,103C2813.6-28.6,1869.5-401.3,1263.3-1054.7c-370.2-400-611.2-961.5-611.2-1426.1v-136.7h183.9c203.7,0,213.7,10,213.7,196.3c0,144.1,74.5,402.5,176.4,616.2C1539-1149.2,2212.3-689.6,3221.1-443.6c136.7,34.8,253.4,57.1,258.4,52.2c7.5-9.9-223.6-852.2-260.9-949.1c-9.9-27.3,255.9-216.2,303.1-216.2c14.9,0,340.4,233.5,720.5,519.2c382.6,288.2,708.1,529.2,725.5,539.2c19.9,12.4,313-191.3,762.8-529.2l732.9-551.6l149.1,104.3c84.5,54.7,151.6,109.3,151.6,119.3c0,9.9-59.6,231.1-134.2,489.5c-74.5,260.9-131.7,474.5-126.7,479.5c17.4,17.4,564-129.2,782.6-211.2c765.2-283.2,1274.6-720.5,1523-1306.9c72.1-173.9,141.6-479.5,141.6-628.6v-84.5h198.8h198.8v84.5c0,44.7-17.4,178.9-37.3,295.6C9087.1-960.4,7914.4-133,6016.2,78.2c-183.9,19.9-347.8,37.3-367.7,37.3c-17.4,0,54.7,44.7,161.5,96.9c484.5,243.5,882,718,1090.7,1301.9l82,228.6l116.8,42.2c255.9,91.9,337.9,258.4,355.3,728c7.4,260.9,19.9,332.9,54.7,372.7c72.1,82,99.4,154,99.4,260.9c0,173.9-74.5,628.6-116.8,715.5c-24.9,49.7-198.8,208.7-459.6,417.4L6615,4617.4l-797.5,196.3c-437.3,106.8-810,196.3-824.9,196.3C4975.2,5007.5,4617.4,4920.6,4192.5,4816.2z M5710.6,4436.1l718-176.4l350.3-283.2c340.4-275.8,382.6-323,382.6-454.7c0-42.2-9.9-54.7-37.3-42.2c-22.4,7.5-186.3,24.8-367.7,42.2c-407.5,32.3-3595.1,14.9-3781.5-22.4c-67.1-12.4-126.7-22.4-129.2-19.9c-5,2.5,2.5,52.2,12.4,106.8c14.9,91.9,47.2,124.2,365.2,382.6l345.4,283.2l710.6,178.9c390.1,96.9,710.6,178.9,710.6,178.9C4992.6,4612.5,5315.5,4533,5710.6,4436.1z M7159.1,3124.2l59.6-14.9l-62.1-29.8c-99.4-44.7-626.1-156.5-924.2-196.3c-703.1-91.9-1761.5-91.9-2487,2.5c-303.1,39.8-760.3,136.7-894.4,191.3l-74.5,32.3l74.5,14.9C2950.3,3146.6,7082,3146.6,7159.1,3124.2z M3119.2,2600c457.2-126.7,1490.7-216.2,2191.4-186.3c675.8,27.3,1311.8,104.4,1637.3,198.8l121.7,37.3l-12.4-198.8c-14.9-241-42.2-283.2-181.4-265.8c-54.7,7.5-124.2,22.4-154.1,29.8c-47.2,14.9-57.1,5-69.6-79.5c-99.4-561.5-303.1-973.9-648.5-1299.4c-606.3-571.4-1443.5-556.5-2037.3,34.8c-280.7,280.8-484.5,683.3-576.4,1128c-24.8,124.2-49.7,233.6-59.6,241c-7.4,7.5-64.6-9.9-129.2-37.3c-161.5-67.1-176.4-64.6-221.1,47.2c-42.2,101.9-84.5,400-57.1,400C2930.4,2649.7,3019.8,2627.3,3119.2,2600z M4602.5-269.6c0-14.9-824.9-636-834.8-626.1c-9.9,7.5,151.6,561.5,169,576.4c5,5,126.7,19.9,268.3,32.3C4545.3-257.2,4602.5-254.8,4602.5-269.6z M5852.2-297c169-12.4,198.8-22.4,216.2-67.1c37.3-87,154-516.8,144.1-526.7c-7.5-7.5-797.5,581.4-839.8,626.1c-7.5,7.5,54.7,7.5,136.7-2.5C5591.3-274.6,5745.4-287.1,5852.2-297z"></path><path d="M4304.3,4041v-99.4h99.4h99.4v-99.4v-99.4h99.4h99.4v99.4v99.4h99.4h99.4v-99.4v-99.4h99.4h99.4v99.4v99.4h99.4h99.4v-99.4v-99.4h99.4h99.4v99.4v99.4h99.4h99.4v99.4v99.4h-99.4h-99.4V4041v-99.4h-99.4h-99.4v99.4v99.4h-99.4h-99.4V4041v-99.4H5000h-99.4v99.4v99.4h-99.4h-99.4V4041v-99.4h-99.4h-99.4v99.4v99.4h-99.4h-99.4V4041z"></path><path d="M4428.6-1648.6c-569-54.7-1083.3-159-1513.1-310.6c-877.1-305.6-1366.5-805-1309.4-1334.2c74.5-713.1,1058.4-1264.6,2611.3-1463.4c375.2-49.7,1416.2-42.2,1801.3,12.4c1197.6,164,2047.3,541.6,2375.2,1048.5c569,884.5-439.7,1746.7-2350.4,2010C5703.1-1638.6,4759-1618.7,4428.6-1648.6z M6105.6-2090.8c521.8-82,1016.2-221.1,1316.8-372.7l124.2-62.1l-827.4-226.1c-673.3-181.4-834.8-218.6-869.6-193.8c-424.9,300.7-1125.5,300.7-1550.4,0c-34.8-24.8-196.3,12.4-869.6,193.8l-827.3,226.1l124.2,62.1c392.6,198.8,1026.1,350.3,1788.9,427.3C4783.8-2008.8,5795-2043.6,6105.6-2090.8z M3223.5-3102c904.4-246,973.9-270.8,1055.9-347.8c106.8-104.4,323-206.2,479.5-226.1l116.8-17.4v-357.8v-360.3l-265.8,17.4c-1003.7,67.1-1940.4,352.8-2360.3,720.5c-141.6,124.2-255.9,325.5-255.9,452.2c0,159,144.1,417.4,218.6,395C2237.2-2833.7,2691.9-2957.9,3223.5-3102z M8065.9-2948c104.3-166.5,111.8-305.6,29.8-477c-238.5-482-1299.4-884.5-2554.1-969l-268.3-17.4v360.3v357.8l119.2,17.4c154,19.9,370.2,121.7,477,226.1c82,77,154,101.9,1080.8,355.3C7497-2943,7956.6-2823.8,7969-2826.2C7983.9-2831.2,8026.2-2883.4,8065.9-2948z M5459.6-3171.6l99.4-37.3l-72.1-27.3c-201.2-79.5-616.2-82-822.4-2.5c-87,32.3-79.5,39.7,89.4,87C4918-3107,5313-3116.9,5459.6-3171.6z"></path></g></g>
</svg>