<svg xmlns="http://www.w3.org/2000/svg" height="512pt" viewBox="0 -31 512 512" width="512pt"><g id="surface1"><path d="M 45 360 L 249.722656 360 C 268.296875 412.378906 318.332031 450 377 450 C 451.4375 450 512 389.4375 512 315 C 512 282.929688 500.75 253.4375 482 230.253906 L 482 45 C 482 20.1875 461.8125 0 437 0 L 45 0 C 20.1875 0 0 20.1875 0 45 L 0 315 C 0 339.8125 20.1875 360 45 360 Z M 45 330 C 36.730469 330 30 323.269531 30 315 L 30 90 L 452 90 L 452 202.804688 C 430.535156 188.410156 404.730469 180 377 180 C 302.5625 180 242 240.5625 242 315 C 242 320.070312 242.289062 325.074219 242.839844 330 Z M 436.652344 300 C 435.484375 273.785156 430.980469 243.953125 420.742188 219.554688 C 452.511719 234.175781 475.78125 264.199219 480.925781 300 Z M 377 420 C 374.859375 420 367.003906 415.332031 359.226562 394.585938 C 352.660156 377.078125 348.5625 354.535156 347.371094 329.988281 L 406.628906 329.988281 C 405.4375 354.53125 401.339844 377.078125 394.773438 394.585938 C 386.996094 415.332031 379.140625 420 377 420 Z M 273.074219 300 C 278.21875 264.199219 301.488281 234.175781 333.257812 219.554688 C 323.019531 243.949219 318.515625 273.777344 317.347656 300 Z M 347.371094 300 C 348.5625 275.457031 352.660156 252.921875 359.226562 235.414062 C 367.003906 214.667969 374.859375 210 377 210 C 379.140625 210 386.996094 214.667969 394.773438 235.414062 C 401.339844 252.921875 405.4375 275.457031 406.628906 300 Z M 273.074219 330 L 317.347656 330 C 318.605469 358.1875 323.382812 384.441406 331.136719 405.121094 C 331.828125 406.972656 332.539062 408.734375 333.257812 410.445312 C 301.488281 395.824219 278.21875 365.800781 273.074219 330 Z M 420.742188 410.445312 C 421.460938 408.734375 422.167969 406.972656 422.863281 405.121094 C 430.617188 384.441406 435.394531 358.179688 436.652344 329.988281 L 480.921875 329.988281 C 475.78125 365.792969 452.511719 395.824219 420.742188 410.445312 Z M 45 30 L 437 30 C 445.269531 30 452 36.730469 452 45 L 452 60 L 30 60 L 30 45 C 30 36.730469 36.730469 30 45 30 Z M 45 30 " style=" stroke:none;fill-rule:nonzero;fill:rgb(0%,0%,0%);fill-opacity:1;"></path><path d="M 90 270 L 60 270 C 51.714844 270 45 276.714844 45 285 C 45 293.285156 51.714844 300 60 300 L 90 300 C 98.285156 300 105 293.285156 105 285 C 105 276.714844 98.285156 270 90 270 Z M 90 270 " style=" stroke:none;fill-rule:nonzero;fill:rgb(0%,0%,0%);fill-opacity:1;"></path><path d="M 181 270 L 151 270 C 142.714844 270 136 276.714844 136 285 C 136 293.285156 142.714844 300 151 300 L 181 300 C 189.285156 300 196 293.285156 196 285 C 196 276.714844 189.285156 270 181 270 Z M 181 270 " style=" stroke:none;fill-rule:nonzero;fill:rgb(0%,0%,0%);fill-opacity:1;"></path><path d="M 75 210 L 166 210 C 174.285156 210 181 203.285156 181 195 L 181 135 C 181 126.714844 174.285156 120 166 120 L 75 120 C 66.714844 120 60 126.714844 60 135 L 60 195 C 60 203.285156 66.714844 210 75 210 Z M 90 150 L 151 150 L 151 180 L 90 180 Z M 90 150 " style=" stroke:none;fill-rule:nonzero;fill:rgb(0%,0%,0%);fill-opacity:1;"></path></g></svg>