<svg xmlns="http://www.w3.org/2000/svg" height="511pt" viewBox="-17 1 511 511.999" width="511pt"><path d="m21.140625 279.675781c-7.53125-7.53125-7.53125-19.785156 0-27.3125l183.785156-183.785156c2.929688-2.929687 2.929688-7.679687 0-10.605469-2.929687-2.933594-7.679687-2.929687-10.605469 0l-183.789062 183.785156c-13.375 13.375-13.375 35.144532 0 48.523438l46.292969 46.289062c1.460937 1.460938 3.382812 2.195313 5.300781 2.195313 1.921875 0 3.839844-.730469 5.304688-2.195313 2.929687-2.929687 2.929687-7.679687 0-10.605468zm0 0"></path><path d="m168.578125 149.363281-113.492187 113.492188c-2.929688 2.929687-2.929688 7.679687 0 10.609375 1.464843 1.460937 3.382812 2.195312 5.304687 2.195312 1.917969 0 3.835937-.730468 5.300781-2.195312l113.492188-113.492188c2.929687-2.929687 2.929687-7.679687 0-10.609375-2.925782-2.925781-7.675782-2.925781-10.605469 0zm0 0"></path><path d="m237.210938 137.371094c7.773437 0 15.546874-2.957032 21.464843-8.875l22.703125-22.703125c11.835938-11.835938 11.835938-31.09375 0-42.929688-11.835937-11.835937-31.09375-11.835937-42.929687 0l-22.703125 22.703125c-5.734375 5.734375-8.890625 13.355469-8.890625 21.464844 0 8.105469 3.15625 15.730469 8.890625 21.464844 5.917968 5.917968 13.691406 8.875 21.464844 8.875zm-10.859376-41.199219 22.703126-22.703125c5.988281-5.988281 15.730468-5.988281 21.714843 0 5.988281 5.988281 5.988281 15.730469 0 21.714844l-22.703125 22.703125c-5.984375 5.988281-15.726562 5.988281-21.714844 0-2.898437-2.898438-4.496093-6.753907-4.496093-10.855469s1.597656-7.960938 4.496093-10.859375zm0 0"></path><path d="m443.683594 250.550781h-72.195313l55.625-55.625c13.378907-13.378906 13.378907-35.148437 0-48.527343l-136.351562-136.347657c-6.480469-6.480469-15.097657-10.050781-24.261719-10.050781s-17.78125 3.570312-24.265625 10.050781l-26.71875 26.71875c-2.925781 2.929688-2.925781 7.675781 0 10.605469 2.929687 2.929688 7.679687 2.929688 10.605469 0l26.722656-26.71875c3.644531-3.648438 8.496094-5.65625 13.65625-5.65625 5.15625 0 10.007812 2.007812 13.65625 5.65625l136.347656 136.347656c7.53125 7.53125 7.53125 19.78125 0 27.3125l-66.230468 66.230469h-189.535157l54.515625-54.515625c2.929688-2.925781 2.929688-7.675781 0-10.605469-2.929687-2.929687-7.679687-2.929687-10.605468 0l-65.121094 65.125h-23.519532c-18.921874 0-34.3125 15.390625-34.3125 34.308594v192.828125c0 18.917969 15.390626 34.3125 34.3125 34.3125h327.675782c18.921875 0 34.3125-15.394531 34.3125-34.3125v-27.71875c0-4.144531-3.355469-7.5-7.5-7.5-4.140625 0-7.5 3.355469-7.5 7.5v27.71875c0 10.648438-8.660156 19.3125-19.3125 19.3125h-327.675782c-10.648437 0-19.3125-8.664062-19.3125-19.3125v-105.238281h366.300782v47.519531c0 4.140625 3.355468 7.5 7.5 7.5 4.144531 0 7.5-3.359375 7.5-7.5v-135.105469c0-18.921875-15.390625-34.3125-34.3125-34.3125zm-327.675782 15h327.675782c10.648437 0 19.3125 8.664063 19.3125 19.3125v26.265625h-366.300782v-26.265625c0-10.648437 8.664063-19.3125 19.3125-19.3125zm-19.3125 91.898438v-31.320313h366.300782v31.320313zm0 0"></path><path d="m380.78125 427.46875c-6.339844 0-11.5 5.160156-11.5 11.5v28.570312c0 6.34375 5.160156 11.5 11.5 11.5h45.445312c6.339844 0 11.5-5.15625 11.5-11.5v-28.570312c0-6.339844-5.160156-11.5-11.5-11.5zm41.945312 36.570312h-38.445312v-21.570312h38.445312zm0 0"></path><path d="m243.761719 427.46875c-6.339844 0-11.5 5.160156-11.5 11.5v28.570312c0 6.34375 5.160156 11.5 11.5 11.5h96.121093c6.339844 0 11.5-5.15625 11.5-11.5v-28.570312c0-6.339844-5.160156-11.5-11.5-11.5zm92.621093 36.570312h-89.121093v-21.570312h89.121093zm0 0"></path><path d="m152.691406 464.039062c-4.140625 0-7.5 3.359376-7.5 7.5 0 4.144532 3.359375 7.5 7.5 7.5h47.890625c4.140625 0 7.5-3.355468 7.5-7.5 0-4.140624-3.359375-7.5-7.5-7.5zm0 0"></path></svg>