<svg xmlns="http://www.w3.org/2000/svg" xmlns:xlink="http://www.w3.org/1999/xlink" id="Capa_1" x="0px" y="0px" width="46.061px" height="46.061px" viewBox="0 0 46.061 46.061" style="enable-background:new 0 0 46.061 46.061;" xml:space="preserve">
<g>
	<path d="M34.933,27.598c-1.668-1.516-2.604-3.774-2.604-6.357v-0.695l0.202-0.313c1.775-3.014,3.447-5.861,3.447-8.742   c0-2.586-1.568-4.426-3.649-5.262V1.367C32.328,0.612,31.735,0,30.979,0c-0.754,0-1.346,0.612-1.346,1.367v4.36   c-1.041,0.027-2.051,0.32-2.875,0.852c-1.615,1.041-2.799,2.255-3.731,3.393c-0.934-1.137-2.12-2.352-3.735-3.393   c-0.824-0.532-1.816-0.825-2.885-0.852v-4.36C16.407,0.612,15.815,0,15.06,0c-0.756,0-1.348,0.612-1.348,1.367v4.861   c-2.03,0.835-3.643,2.675-3.643,5.262c0,2.881,1.68,5.729,3.454,8.742l0.188,0.313v0.695c0,2.583-0.923,4.843-2.591,6.357   c-3.647,3.317-5.832,8.426-5.832,13.666c0,0.846,0.232,2.418,0.348,3.221c0.13,0.898,0.898,1.576,1.806,1.576h31.184   c0.909,0,1.68-0.678,1.807-1.578c0.114-0.801,0.34-2.375,0.34-3.219C40.772,36.023,38.58,30.915,34.933,27.598z M16.242,9.371   c0.422,0,0.803,0.097,1.075,0.272c1.979,1.276,3.14,2.895,4.165,4.324l0.336,0.465c0.289,0.397,0.707,0.73,1.203,0.73   c0.494,0,0.927-0.333,1.215-0.73l0.343-0.465c1.025-1.429,2.189-3.048,4.168-4.324c0.273-0.175,0.657-0.272,1.078-0.272   c0.979,0,2.529,0.575,2.529,2.118c0,1.888-3.435,7.751-3.459,7.812H17.173c-0.026-0.061-0.514-0.919-0.514-0.919   c-1.515-2.573-2.945-5.004-2.945-6.893C13.714,9.946,15.264,9.371,16.242,9.371z M37.042,42.387H9.026   c-0.051-0.429-0.096-0.82-0.096-1.129c0-4.23,1.726-8.326,4.628-10.963c1.057-0.961,1.904-2.115,2.528-3.4h13.896   c0.623,1.287,1.472,2.439,2.529,3.4c2.9,2.639,4.627,6.732,4.627,10.963C37.138,41.566,37.095,41.957,37.042,42.387z"></path>
</g>
<g>
</g>
<g>
</g>
<g>
</g>
<g>
</g>
<g>
</g>
<g>
</g>
<g>
</g>
<g>
</g>
<g>
</g>
<g>
</g>
<g>
</g>
<g>
</g>
<g>
</g>
<g>
</g>
<g>
</g>
</svg>