<svg xmlns="http://www.w3.org/2000/svg" height="512" viewBox="0 0 64 64" width="512"><path d="m41 20h12a1 1 0 0 0 1-1v-16a1 1 0 0 0 -1-1h-12a1 1 0 0 0 -1 1v16a1 1 0 0 0 1 1zm1-2v-8h10v8zm0-14h10v4h-10z"></path><path d="m44 12h2v2h-2z"></path><path d="m48 12h2v2h-2z"></path><path d="m35 44h5v12h-1a1 1 0 0 0 -1 1v4a1 1 0 0 0 1 1h16a1 1 0 0 0 1-1v-4a1 1 0 0 0 -1-1h-1v-12h5a1 1 0 0 0 1-1v-18a3 3 0 0 0 -3-3h-20a3 3 0 0 0 -3 3v18a1 1 0 0 0 1 1zm1-8h2v2h-2zm0 4h2v2h-2zm6 4h4v12h-4zm-2 14h6v2h-6zm14 2h-6v-2h6zm-2-4h-4v-12h4zm6-18h-2v-2h2zm0 4h-2v-2h2zm0-17v9h-2v-10h1a1 1 0 0 1 1 1zm-4 17h-14v-18h2v4a1 1 0 0 0 1.243.97l3.757-.939 3.757.939a1 1 0 0 0 1.243-.97v-4h2zm-4-16.586v1.3l-1.044-.261zm-6 0 1.044 1.044-1.044.261zm4.586-1.414-1.586 1.586-1.586-1.586zm-11.586 0h1v10h-2v-9a1 1 0 0 1 1-1z"></path><path d="m46 30h2v2h-2z"></path><path d="m46 34h2v2h-2z"></path><path d="m46 38h2v2h-2z"></path><path d="m13 20h12a1 1 0 0 0 1-1v-1.11a6.977 6.977 0 0 0 5 2.11 1 1 0 0 0 1-1v-12a5.006 5.006 0 0 0 -5-5h-14a1 1 0 0 0 -1 1v16a1 1 0 0 0 1 1zm11-2h-10v-8.057a10.743 10.743 0 0 0 5-1.643 10.743 10.743 0 0 0 5 1.64zm6-11v10.9a5.008 5.008 0 0 1 -4-4.9v-9h1a3 3 0 0 1 3 3zm-6-3v3.935a7.642 7.642 0 0 1 -4.293-1.642 1 1 0 0 0 -1.414 0 7.553 7.553 0 0 1 -4.293 1.638v-3.931z"></path><path d="m16 12h2v2h-2z"></path><path d="m20 12h2v2h-2z"></path><path d="m8 43a1 1 0 0 0 1 1h1.362l-5.315 16.7a1 1 0 0 0 .953 1.3h26a1 1 0 0 0 .953-1.3l-5.315-16.7h1.362a1 1 0 0 0 1-1v-18a3 3 0 0 0 -3-3h-16a3 3 0 0 0 -3 3zm2-3h2v2h-2zm4-4h10v2h-10zm10-2h-10v-5.55a3 3 0 0 1 4.293.257 1 1 0 0 0 1.414 0 3.1 3.1 0 0 1 4.293-.269zm6.632 26h-3.823l-2.831-13.209-1.956.418 2.741 12.791h-4.763v-15h-2v15h-5.674l3.635-12.725-1.922-.55-3.793 13.275h-2.878l5.093-16h.539a1 1 0 0 0 1-1v-3h10v3a1 1 0 0 0 1 1h.539zm-2.632-18h-2v-2h2zm0-17v13h-2v-14h1a1 1 0 0 1 1 1zm-4 1.08a4.993 4.993 0 0 0 -4.981.609 4.721 4.721 0 0 0 -5.019-.555v-2.134h10zm-14-1.08a1 1 0 0 1 1-1h1v14h-2z"></path><path d="m58 4h2v2h-2z"></path><path d="m58 8h2v2h-2z"></path><path d="m56 6h2v2h-2z"></path><path d="m60 6h2v2h-2z"></path><path d="m4 13h2v2h-2z"></path><path d="m4 17h2v2h-2z"></path><path d="m2 15h2v2h-2z"></path><path d="m6 15h2v2h-2z"></path></svg>