<svg xmlns:dc="http://purl.org/dc/elements/1.1/" xmlns:cc="http://creativecommons.org/ns#" xmlns:rdf="http://www.w3.org/1999/02/22-rdf-syntax-ns#" xmlns:svg="http://www.w3.org/2000/svg" xmlns="http://www.w3.org/2000/svg" xmlns:sodipodi="http://sodipodi.sourceforge.net/DTD/sodipodi-0.dtd" xmlns:inkscape="http://www.inkscape.org/namespaces/inkscape" width="438.49927" height="478.55746" id="svg2" inkscape:version="0.48.4 r9939" sodipodi:docname="taxi_driver.svg"><defs id="defs4"></defs><metadata></metadata><g inkscape:label="Layer 1" inkscape:groupmode="layer" id="layer1" transform="translate(-161.57787,-229.50505)"><path style="fill:#000000;fill-opacity:1;stroke:none" d="m 179.99008,708.00999 c 0,-109.67346 88.9079,-198.22422 198.58135,-198.22422 109.67345,0 198.58135,88.55076 198.58135,198.22422" id="path4042" inkscape:connector-curvature="0" sodipodi:nodetypes="csc"></path><path sodipodi:type="arc" style="fill:#000000;fill-opacity:1;stroke:none" id="path3040" sodipodi:cx="375" sodipodi:cy="307.71933" sodipodi:rx="140.71428" sodipodi:ry="53.92857" d="m 515.71428,307.71933 a 140.71428,53.92857 0 1 1 -281.42856,0 140.71428,53.92857 0 1 1 281.42856,0 z" transform="translate(7.1428571,-24.285715)"></path><path style="fill:#000000;fill-opacity:1;stroke:none" d="m 496.84626,364.0332 c -71.36104,35.0239 -146.86028,34.05803 -226.15625,0.3125 -2.8e-4,6.50813 0,13.52837 0,20.6875 0,62.48388 50.67237,113.125 113.15625,113.125 62.48388,0 113.125,-50.64112 113.125,-113.125 0,-6.04045 -0.0633,-14.25645 -0.125,-21 z" id="path3159" inkscape:connector-curvature="0"></path><path sodipodi:nodetypes="ccccc" inkscape:connector-curvature="0" id="path3441" d="m 269.68736,314.34771 c 76.09816,-14.08906 152.19632,-14.48127 228.29448,0 l 1.01015,40.40611 c -71.99509,35.55996 -148.21857,34.47383 -228.29448,0 z" style="fill:#000000;fill-opacity:1;stroke:none"></path><g id="g3148" transform="matrix(1.089734,0,0,1.089734,-34.415533,-25.990697)"><rect y="314.14789" x="274.64285" height="16.621136" width="16.621136" id="rect3044" style="fill:#ffffff;fill-opacity:1;stroke:none"></rect><rect y="331.29831" x="291.40103" height="16.621136" width="16.621136" id="rect3044-4" style="fill:#ffffff;fill-opacity:1;stroke:none"></rect><rect y="314.14789" x="308.56354" height="16.621136" width="16.621136" id="rect3044-0" style="fill:#ffffff;fill-opacity:1;stroke:none"></rect><rect y="331.29831" x="325.32172" height="16.621136" width="16.621136" id="rect3044-4-9" style="fill:#ffffff;fill-opacity:1;stroke:none"></rect><rect y="314.14789" x="342.14502" height="16.621136" width="16.621136" id="rect3044-48" style="fill:#ffffff;fill-opacity:1;stroke:none"></rect><rect y="331.29831" x="358.90323" height="16.621136" width="16.621136" id="rect3044-4-8" style="fill:#ffffff;fill-opacity:1;stroke:none"></rect><rect y="314.14789" x="375.3873" height="16.621136" width="16.621136" id="rect3044-2" style="fill:#ffffff;fill-opacity:1;stroke:none"></rect><rect y="331.29831" x="392.14548" height="16.621136" width="16.621136" id="rect3044-4-4" style="fill:#ffffff;fill-opacity:1;stroke:none"></rect><rect y="314.14789" x="408.96875" height="16.621136" width="16.621136" id="rect3044-5" style="fill:#ffffff;fill-opacity:1;stroke:none"></rect><rect y="331.29831" x="425.72693" height="16.621136" width="16.621136" id="rect3044-4-5" style="fill:#ffffff;fill-opacity:1;stroke:none"></rect><rect y="314.14789" x="442.21103" height="16.621136" width="16.621136" id="rect3044-1" style="fill:#ffffff;fill-opacity:1;stroke:none"></rect><rect y="331.29831" x="458.96921" height="16.621136" width="16.621136" id="rect3044-4-7" style="fill:#ffffff;fill-opacity:1;stroke:none"></rect><rect y="314.14789" x="475.79251" height="16.621136" width="16.621136" id="rect3044-11" style="fill:#ffffff;fill-opacity:1;stroke:none"></rect></g><path sodipodi:type="arc" style="fill:#000000;fill-opacity:1;stroke:#ffffff;stroke-width:4.85978127;stroke-miterlimit:4;stroke-dasharray:none" id="path3181" sodipodi:cx="386.42856" sodipodi:cy="320.21933" sodipodi:rx="30.714285" sodipodi:ry="30.714285" d="m 417.14284,320.21933 a 30.714285,30.714285 0 1 1 -61.42857,0 30.714285,30.714285 0 1 1 61.42857,0 z" transform="matrix(1.2346235,0,0,1.2346235,-93.443155,-91.040895)"></path><g style="font-size:64.30551147px;font-style:normal;font-variant:normal;font-weight:800;font-stretch:normal;line-height:125%;letter-spacing:0px;word-spacing:0px;fill:#ffffff;fill-opacity:1;stroke:none;font-family:a_PlakatCmpl;-inkscape-font-specification:a_PlakatCmpl Ultra-Bold" id="text3951"><path d="m 375.4287,281.74698 18.00743,0 c 1.88522,4e-5 3.66385,-0.19228 5.33589,-0.57696 0.42909,-0.21452 1.00801,-0.3218 1.73677,-0.32185 1.41423,5e-5 2.73234,0.70719 3.95433,2.12141 1.22191,1.41432 2.18645,3.16122 2.89363,5.24072 0.70709,2.07958 1.06066,3.8049 1.06071,5.17596 -5e-5,1.67204 -0.45011,2.97968 -1.35017,3.92293 -0.90015,0.94332 -2.16462,1.41496 -3.79341,1.41493 -2.3576,3e-5 -4.28668,-1.45742 -5.78726,-4.37234 -0.81511,-1.54376 -1.40482,-2.50863 -1.76915,-2.89461 -0.3644,-0.38591 -0.88935,-0.57888 -1.57486,-0.57892 -1.50066,4e-5 -2.25096,1.54383 -2.25093,4.63138 l 0,19.03378 c -3e-5,2.05797 0.19294,3.50495 0.57892,4.34094 0.38592,0.83601 1.15781,1.51109 2.31569,2.02525 1.28602,0.51417 2.14328,0.98581 2.57179,1.41492 0.42843,0.42913 0.64266,1.05057 0.6427,1.86433 -4e-5,3.30084 -4.50124,4.95126 -13.50361,4.95126 -10.63256,0 -15.94883,-1.69294 -15.94882,-5.07882 -1e-5,-0.90011 0.28946,-1.55393 0.86839,-1.96147 0.57891,-0.40753 1.5114,-0.80427 2.79747,-1.19022 0.98644,-0.25642 1.65106,-0.89912 1.99385,-1.92811 0.34275,-1.02897 0.57825,-2.93679 0.70648,-5.72348 l 0.51416,-8.16771 c -2e-5,-1.11465 0.0108,-2.14362 0.0324,-3.08693 0.0216,-0.94326 0.0324,-2.27183 0.0324,-3.98573 -2e-5,-2.82982 -0.15014,-4.72718 -0.45038,-5.69209 -0.30027,-0.96483 -0.85728,-1.44726 -1.67103,-1.4473 -0.68556,4e-5 -1.6501,0.84683 -2.89363,2.54039 -1.24355,1.69362 -2.29411,3.00127 -3.15169,3.92293 -0.8576,0.92173 -2.01511,1.38258 -3.47255,1.38255 -1.24289,3e-5 -2.28233,-0.43923 -3.11833,-1.31779 -0.83601,-0.87849 -1.25401,-1.98236 -1.25401,-3.31163 0,-1.41423 0.39642,-3.17193 1.18925,-5.2731 0.79282,-2.10108 1.84306,-3.93401 3.15071,-5.49878 1.30764,-1.56468 2.73335,-2.34704 4.27715,-2.34709 0.6005,5e-5 1.58663,0.12859 2.95839,0.38562 1.37174,0.25713 2.82886,0.38567 4.37136,0.38563 z" style="font-weight:bold;fill:#ffffff;font-family:Kladez;-inkscape-font-specification:Kladez Bold" id="path3956" inkscape:connector-curvature="0"></path></g><path style="fill:#ffffff;fill-opacity:1;stroke:none" d="m 380,524.4375 c -98.65245,0 -178.625,79.97255 -178.625,178.625 0,1.66792 0.0171,3.34305 0.0625,5 l 32.21875,0 c -0.0557,-1.6606 -0.0937,-3.32584 -0.0937,-5 0,-12.15424 1.48982,-23.95893 4.28125,-35.25 l 82.9062,32.03125 c -0.0577,1.07245 -0.0625,2.1319 -0.0625,3.21875 0,1.68545 0.11225,3.35005 0.25,5 l 118.15625,0 c 0.13775,-1.64995 0.21875,-3.31455 0.21875,-5 0,-0.88669 -0.024,-1.7478 -0.0625,-2.625 l 83.03125,-32.0625 c 2.703,11.12189 4.15625,22.73334 4.15625,34.6875 0,1.67443 -0.038,3.33914 -0.0937,5 l 32.21875,0 c 0.0454,-1.65701 0.0625,-3.33201 0.0625,-5 0,-98.65245 -79.97255,-178.625 -178.625,-178.625 z m 0,32.21875 c 55.25369,0 103.3465,30.60652 128.28125,75.78125 l -83.1875,32.125 C 414.2132,651.8359 398.05638,643.75 380,643.75 c -17.84993,0 -33.84342,7.8997 -44.71875,20.375 L 252,631.9375 c 25.01328,-44.89935 72.95113,-75.28125 128,-75.28125 z" id="path3960" inkscape:connector-curvature="0"></path><path sodipodi:type="arc" style="fill:#000000;fill-opacity:1;stroke:#ffffff;stroke-width:0.04918495;stroke-linecap:butt;stroke-linejoin:miter;stroke-miterlimit:4;stroke-dasharray:none" id="path4052" sodipodi:cx="142.4315" sodipodi:cy="582.64124" sodipodi:rx="43.436558" sodipodi:ry="43.436558" d="m 185.86806,582.64124 c 0,23.98934 -19.44721,43.43655 -43.43656,43.43655 -23.98935,0 -43.436554,-19.44721 -43.436554,-43.43655 0,-23.98935 19.447204,-43.43656 43.436554,-43.43656 23.98935,0 43.43656,19.44721 43.43656,43.43656 z" transform="matrix(1.2554464,0,0,1.2554464,37.35752,-103.37674)"></path><path sodipodi:type="arc" style="fill:#000000;fill-opacity:1;stroke:#ffffff;stroke-width:0.04918495;stroke-linecap:butt;stroke-linejoin:miter;stroke-miterlimit:4;stroke-dasharray:none" id="path4052-3" sodipodi:cx="142.4315" sodipodi:cy="582.64124" sodipodi:rx="43.436558" sodipodi:ry="43.436558" d="m 185.86806,582.64124 c 0,23.98934 -19.44721,43.43655 -43.43656,43.43655 -23.98935,0 -43.436554,-19.44721 -43.436554,-43.43655 0,-23.98935 19.447204,-43.43656 43.436554,-43.43656 23.98935,0 43.43656,19.44721 43.43656,43.43656 z" transform="matrix(1.2554464,0,0,1.2554464,366.66725,-103.37674)"></path></g></svg>